# MagicaVoxel @ Ephtracy

# group
o 

# material
mtllib Tile001.mtl
usemtl palette

# normals
vn -1 0 0
vn 1 0 0
vn 0 0 1
vn 0 0 -1
vn 0 -1 0
vn 0 1 0

# texcoords
vt 0.0332031 0.5
vt 0.0683594 0.5
vt 0.994141 0.5

# verts
v -0.5 0 0.5
v -0.5 0 -0.5
v -0.5 1 0.5
v -0.5 1 -0.5
v 0.5 0 0.5
v 0.5 0 -0.5
v 0.5 0.1 0.3
v 0.5 0.1 -0.4
v 0.5 0.2 0.1
v 0.5 0.2 -0.2
v 0.5 0.3 0.1
v 0.5 0.3 0
v 0.5 0.3 -0.1
v 0.5 0.3 -0.2
v 0.5 0.4 0
v 0.5 0.4 -0.1
v 0.5 0.5 0.2
v 0.5 0.5 0.1
v 0.5 0.5 -0.2
v 0.5 0.5 -0.3
v 0.5 0.6 0.2
v 0.5 0.6 0.1
v 0.5 0.6 -0.2
v 0.5 0.6 -0.3
v 0.5 0.7 0
v 0.5 0.7 -0.1
v 0.5 0.8 0.3
v 0.5 0.8 0
v 0.5 0.8 -0.1
v 0.5 0.8 -0.4
v 0.5 1 0.5
v 0.5 1 -0.5
v -0.5 0 0.5
v -0.5 1 0.5
v -0.1 0.3 0.5
v -0.1 0.7 0.5
v 0.2 0.3 0.5
v 0.2 0.7 0.5
v 0.5 0 0.5
v 0.5 1 0.5
v -0.5 0 -0.5
v -0.5 1 -0.5
v -0.1 0.3 -0.5
v -0.1 0.7 -0.5
v 0.2 0.3 -0.5
v 0.2 0.7 -0.5
v 0.5 0 -0.5
v 0.5 1 -0.5
v -0.5 0 0.5
v 0.5 0 0.5
v -0.5 0 -0.5
v 0.5 0 -0.5
v -0.5 1 0.5
v 0.5 1 0.5
v -0.5 1 -0.5
v 0.5 1 -0.5

# faces
f 3/2/1 2/2/1 1/2/1
f 4/2/1 2/2/1 3/2/1
f 5/2/2 6/2/2 7/2/2
f 7/2/2 6/2/2 8/2/2
f 7/1/2 8/1/2 9/1/2
f 9/1/2 8/1/2 10/1/2
f 7/1/2 9/1/2 11/1/2
f 9/3/2 10/3/2 11/3/2
f 11/3/2 10/3/2 12/3/2
f 12/3/2 10/3/2 13/3/2
f 10/1/2 8/1/2 14/1/2
f 13/3/2 10/3/2 14/3/2
f 12/3/2 13/3/2 15/3/2
f 11/1/2 12/1/2 15/1/2
f 13/1/2 14/1/2 16/1/2
f 15/3/2 13/3/2 16/3/2
f 7/1/2 11/1/2 17/1/2
f 11/1/2 15/1/2 17/1/2
f 15/1/2 16/1/2 17/1/2
f 17/1/2 16/1/2 18/1/2
f 14/1/2 8/1/2 19/1/2
f 18/1/2 16/1/2 19/1/2
f 16/1/2 14/1/2 19/1/2
f 19/1/2 8/1/2 20/1/2
f 17/3/2 18/3/2 21/3/2
f 7/1/2 17/1/2 21/1/2
f 18/1/2 19/1/2 22/1/2
f 21/3/2 18/3/2 22/3/2
f 19/3/2 20/3/2 23/3/2
f 22/1/2 19/1/2 23/1/2
f 20/1/2 8/1/2 24/1/2
f 23/3/2 20/3/2 24/3/2
f 22/1/2 23/1/2 25/1/2
f 21/1/2 22/1/2 25/1/2
f 23/1/2 24/1/2 25/1/2
f 25/1/2 24/1/2 26/1/2
f 5/2/2 7/2/2 27/2/2
f 7/1/2 21/1/2 27/1/2
f 21/1/2 25/1/2 27/1/2
f 25/2/2 26/2/2 28/2/2
f 27/1/2 25/1/2 28/1/2
f 26/1/2 24/1/2 29/1/2
f 28/2/2 26/2/2 29/2/2
f 8/2/2 6/2/2 30/2/2
f 29/1/2 24/1/2 30/1/2
f 24/1/2 8/1/2 30/1/2
f 27/2/2 28/2/2 31/2/2
f 28/2/2 29/2/2 31/2/2
f 29/2/2 30/2/2 31/2/2
f 5/2/2 27/2/2 31/2/2
f 30/2/2 6/2/2 32/2/2
f 31/2/2 30/2/2 32/2/2
f 35/2/3 34/2/3 33/2/3
f 36/2/3 34/2/3 35/2/3
f 37/2/3 35/2/3 33/2/3
f 37/1/3 36/1/3 35/1/3
f 38/2/3 34/2/3 36/2/3
f 38/1/3 36/1/3 37/1/3
f 39/2/3 37/2/3 33/2/3
f 39/2/3 38/2/3 37/2/3
f 40/2/3 34/2/3 38/2/3
f 40/2/3 38/2/3 39/2/3
f 41/2/4 42/2/4 43/2/4
f 43/2/4 42/2/4 44/2/4
f 41/2/4 43/2/4 45/2/4
f 43/1/4 44/1/4 45/1/4
f 44/2/4 42/2/4 46/2/4
f 45/1/4 44/1/4 46/1/4
f 41/2/4 45/2/4 47/2/4
f 45/2/4 46/2/4 47/2/4
f 46/2/4 42/2/4 48/2/4
f 47/2/4 46/2/4 48/2/4
f 51/2/5 50/2/5 49/2/5
f 52/2/5 50/2/5 51/2/5
f 53/2/6 54/2/6 55/2/6
f 55/2/6 54/2/6 56/2/6
